<?xml version="1.0" encoding="UTF-8"?>
<svg width="666px" height="101px" viewBox="0 0 666 101" version="1.1" xmlns="http://www.w3.org/2000/svg" xmlns:xlink="http://www.w3.org/1999/xlink">
    <title>logo.com drk</title>
    <defs>
        <polygon id="path-1" points="0 0.5181 99.4818 0.5181 99.4818 100 0 100"/>
    </defs>
    <g id="logo.com-drk" stroke="none" stroke-width="1" fill="none" fill-rule="evenodd">
        <g id="Group-36">
            <g id="Group-3" transform="translate(0.000000, 0.481900)">
                <mask id="mask-2" fill="white">
                    <use xlink:href="#path-1"/>
                </mask>
                <g id="Clip-2"/>
                <rect id="Rectangle" fill="#19191A" mask="url(#mask-2)" x="1" y="1.5181" width="98" height="98" rx="8"/>
            </g>
            <path d="M60.0245,83.627 C57.2415,85.148 53.6075,86.053 51.4905,86.227 C43.1135,86.916 34.6945,84.75 28.8825,79.126 C23.1775,73.14 21.9955,65.16 27.1715,58.56 C31.9765,52.432 39.7755,49.809 47.8775,49.491 C52.3685,49.311 67.5525,51.043 63.1085,58.42 C59.5025,64.408 49.5695,58.422 43.8875,60.301 C37.4965,62.412 35.6435,70.92 41.6985,74.478 C46.1195,77.08 52.4135,76.864 56.5595,74.139 C62.5705,70.194 73.7215,51.987 80.9715,60.623 C82.4375,62.367 65.5445,80.605 60.0245,83.627 M17.7785,36.189 C17.1665,33.186 17.9875,29.765 20.9985,30.206 C23.5865,30.588 24.5485,34.271 24.9775,36.88 C25.3345,39.037 30.7715,54.719 27.9645,54.158 C25.3255,53.633 18.4145,39.308 17.7785,36.189 M32.2135,18.7 C36.2115,15.34 38.1525,21.117 38.5815,23.995 C39.0085,26.822 44.0525,48.026 38.6975,47.627 C34.5695,47.318 31.8375,29.35 31.4875,26.504 C31.1135,24.306 30.2075,20.386 32.2135,18.7 M52.7975,12.691 C56.2395,13.357 55.2475,20.426 55.2425,22.972 C55.2405,25.808 55.5375,46.678 51.1885,46.062 C46.6405,45.419 47.6955,24.697 47.5015,21.353 C47.6035,18.004 48.0765,11.775 52.7975,12.691 M63.1835,27.735 C63.5495,25.618 63.9815,21.775 66.3515,20.848 C71.0725,18.992 70.9875,24.841 70.4565,27.599 C69.9315,30.303 66.2955,51.384 61.5455,49.401 C57.8815,47.868 62.5895,30.435 63.1835,27.735" id="Fill-4" fill="#FFFFFF"/>
            <path d="M124.921,40.0308 C126.843,36.6628 129.467,34.0378 132.795,32.1568 C136.122,30.2768 139.852,29.3358 143.986,29.3358 C148.822,29.3358 153.058,30.5758 156.696,33.0558 C160.333,35.5358 162.875,38.9678 164.322,43.3478 L154.34,43.3478 C153.348,41.2818 151.953,39.7318 150.155,38.6978 C148.357,37.6648 146.28,37.1478 143.924,37.1478 C141.402,37.1478 139.159,37.7368 137.197,38.9148 C135.233,40.0928 133.703,41.7578 132.609,43.9058 C131.513,46.0558 130.966,48.5768 130.966,51.4698 C130.966,54.3218 131.513,56.8328 132.609,59.0028 C133.703,61.1728 135.233,62.8468 137.197,64.0248 C139.159,65.2028 141.402,65.7918 143.924,65.7918 C146.28,65.7918 148.357,65.2648 150.155,64.2108 C151.953,63.1568 153.348,61.5968 154.34,59.5298 L164.322,59.5298 C162.875,63.9528 160.343,67.3938 156.727,69.8528 C153.109,72.3128 148.862,73.5418 143.986,73.5418 C139.852,73.5418 136.122,72.6018 132.795,70.7208 C129.467,68.8408 126.843,66.2258 124.921,62.8778 C122.999,59.5298 122.038,55.7278 122.038,51.4698 C122.038,47.2138 122.999,43.4008 124.921,40.0308" id="Fill-6" fill="#2A2A2A"/>
            <path d="M188.9659,65.0171 C190.3499,64.2521 191.4559,63.1051 192.2829,61.5761 C193.1099,60.0471 193.5229,58.1871 193.5229,55.9961 C193.5229,52.7311 192.6649,50.2201 190.9499,48.4631 C189.2349,46.7061 187.1369,45.8281 184.6569,45.8281 C182.1769,45.8281 180.0999,46.7061 178.4259,48.4631 C176.7519,50.2201 175.9149,52.7311 175.9149,55.9961 C175.9149,59.2621 176.7309,61.7721 178.3639,63.5291 C179.9959,65.2861 182.0529,66.1641 184.5329,66.1641 C186.1039,66.1641 187.5809,65.7821 188.9659,65.0171 M175.6049,71.5271 C172.9599,70.0601 170.8829,67.9831 169.3739,65.2961 C167.8649,62.6091 167.1109,59.5101 167.1109,55.9961 C167.1109,52.4831 167.8859,49.3831 169.4359,46.6961 C170.9859,44.0101 173.1039,41.9331 175.7909,40.4651 C178.4769,38.9981 181.4739,38.2641 184.7809,38.2641 C188.0879,38.2641 191.0839,38.9981 193.7709,40.4651 C196.4569,41.9331 198.5759,44.0101 200.1259,46.6961 C201.6759,49.3831 202.4509,52.4831 202.4509,55.9961 C202.4509,59.5101 201.6549,62.6091 200.0639,65.2961 C198.4719,67.9831 196.3229,70.0601 193.6159,71.5271 C190.9079,72.9951 187.8809,73.7281 184.5329,73.7281 C181.2259,73.7281 178.2499,72.9951 175.6049,71.5271" id="Fill-8" fill="#2A2A2A"/>
            <path d="M235.3101,42.2007 C237.8311,44.7847 239.0921,48.3907 239.0921,53.0197 L239.0921,73.1697 L230.4121,73.1697 L230.4121,54.1977 C230.4121,51.4697 229.7301,49.3727 228.3661,47.9047 C227.0021,46.4387 225.1421,45.7037 222.7861,45.7037 C220.3891,45.7037 218.4981,46.4387 217.1131,47.9047 C215.7281,49.3727 215.0361,51.4697 215.0361,54.1977 L215.0361,73.1697 L206.3561,73.1697 L206.3561,38.8217 L215.0361,38.8217 L215.0361,43.0997 C216.1931,41.6117 217.6711,40.4447 219.4691,39.5967 C221.2671,38.7497 223.2401,38.3257 225.3901,38.3257 C229.4821,38.3257 232.7891,39.6177 235.3101,42.2007" id="Fill-10" fill="#2A2A2A"/>
            <path d="M244.796,46.665 C246.242,43.999 248.247,41.933 250.81,40.465 C253.373,38.998 256.307,38.264 259.614,38.264 C263.872,38.264 267.395,39.329 270.186,41.457 C272.975,43.586 274.844,46.572 275.796,50.416 L266.434,50.416 C265.938,48.928 265.102,47.761 263.922,46.913 C262.745,46.066 261.288,45.642 259.551,45.642 C257.072,45.642 255.109,46.541 253.662,48.339 C252.215,50.137 251.492,52.689 251.492,55.996 C251.492,59.262 252.215,61.793 253.662,63.591 C255.109,65.389 257.072,66.288 259.551,66.288 C263.065,66.288 265.358,64.718 266.434,61.576 L275.796,61.576 C274.844,65.296 272.965,68.251 270.155,70.442 C267.342,72.633 263.831,73.728 259.614,73.728 C256.307,73.728 253.373,72.995 250.81,71.527 C248.247,70.06 246.242,67.993 244.796,65.327 C243.349,62.661 242.626,59.551 242.626,55.996 C242.626,52.441 243.349,49.331 244.796,46.665" id="Fill-12" fill="#2A2A2A"/>
            <path d="M292.7525,39.876 C294.5505,38.843 296.6065,38.326 298.9215,38.326 L298.9215,47.44 L296.6275,47.44 C293.8985,47.44 291.8425,48.081 290.4585,49.362 C289.0725,50.644 288.3815,52.876 288.3815,56.058 L288.3815,73.17 L279.7015,73.17 L279.7015,38.822 L288.3815,38.822 L288.3815,44.154 C289.4975,42.335 290.9545,40.91 292.7525,39.876" id="Fill-14" fill="#2A2A2A"/>
            <path d="M325.2086,52.772 C325.1676,50.54 324.3606,48.752 322.7906,47.409 C321.2196,46.066 319.2976,45.394 317.0246,45.394 C314.8756,45.394 313.0666,46.045 311.6006,47.347 C310.1326,48.649 309.2326,50.458 308.9026,52.772 L325.2086,52.772 Z M333.9506,58.6 L308.8406,58.6 C309.0476,61.08 309.9156,63.023 311.4446,64.428 C312.9736,65.834 314.8546,66.536 317.0866,66.536 C320.3116,66.536 322.6046,65.151 323.9686,62.382 L333.3306,62.382 C332.3386,65.689 330.4376,68.407 327.6266,70.535 C324.8146,72.664 321.3646,73.728 317.2726,73.728 C313.9656,73.728 311.0006,72.995 308.3756,71.527 C305.7506,70.06 303.7046,67.983 302.2376,65.296 C300.7706,62.609 300.0366,59.51 300.0366,55.996 C300.0366,52.441 300.7596,49.321 302.2066,46.634 C303.6526,43.948 305.6796,41.881 308.2826,40.434 C310.8876,38.988 313.8836,38.264 317.2726,38.264 C320.5376,38.264 323.4626,38.967 326.0456,40.372 C328.6286,41.777 330.6336,43.772 332.0606,46.355 C333.4856,48.939 334.1986,51.904 334.1986,55.252 C334.1986,56.492 334.1156,57.608 333.9506,58.6 L333.9506,58.6 Z" id="Fill-16" fill="#2A2A2A"/>
            <path d="M348.148,45.9521 L348.148,62.5681 C348.148,63.7251 348.427,64.5621 348.985,65.0791 C349.544,65.5961 350.483,65.8541 351.806,65.8541 L355.836,65.8541 L355.836,73.1701 L350.38,73.1701 C343.064,73.1701 339.406,69.6161 339.406,62.5061 L339.406,45.9521 L335.314,45.9521 L335.314,38.8221 L339.406,38.8221 L339.406,30.3281 L348.148,30.3281 L348.148,38.8221 L355.836,38.8221 L355.836,45.9521 L348.148,45.9521 Z" id="Fill-18" fill="#2A2A2A"/>
            <path d="M382.5572,52.772 C382.5162,50.54 381.7092,48.752 380.1392,47.409 C378.5682,46.066 376.6462,45.394 374.3732,45.394 C372.2242,45.394 370.4152,46.045 368.9492,47.347 C367.4812,48.649 366.5812,50.458 366.2512,52.772 L382.5572,52.772 Z M391.2992,58.6 L366.1892,58.6 C366.3962,61.08 367.2642,63.023 368.7932,64.428 C370.3222,65.834 372.2032,66.536 374.4352,66.536 C377.6602,66.536 379.9532,65.151 381.3172,62.382 L390.6792,62.382 C389.6872,65.689 387.7862,68.407 384.9752,70.535 C382.1632,72.664 378.7132,73.728 374.6212,73.728 C371.3142,73.728 368.3492,72.995 365.7242,71.527 C363.0992,70.06 361.0532,67.983 359.5862,65.296 C358.1192,62.609 357.3852,59.51 357.3852,55.996 C357.3852,52.441 358.1082,49.321 359.5552,46.634 C361.0012,43.948 363.0282,41.881 365.6312,40.434 C368.2362,38.988 371.2322,38.264 374.6212,38.264 C377.8862,38.264 380.8112,38.967 383.3942,40.372 C385.9772,41.777 387.9822,43.772 389.4092,46.355 C390.8342,48.939 391.5472,51.904 391.5472,55.252 C391.5472,56.492 391.4642,57.608 391.2992,58.6 L391.2992,58.6 Z" id="Fill-20" fill="#2A2A2A"/>
            <path d="M396.1656,40.0308 C398.0876,36.6628 400.7126,34.0378 404.0396,32.1568 C407.3666,30.2768 411.0976,29.3358 415.2306,29.3358 C420.0666,29.3358 424.3036,30.5758 427.9406,33.0558 C431.5776,35.5358 434.1196,38.9678 435.5666,43.3478 L425.5846,43.3478 C424.5936,41.2818 423.1976,39.7318 421.3996,38.6978 C419.6026,37.6648 417.5246,37.1478 415.1686,37.1478 C412.6466,37.1478 410.4046,37.7368 408.4416,38.9148 C406.4786,40.0928 404.9486,41.7578 403.8536,43.9058 C402.7586,46.0558 402.2106,48.5768 402.2106,51.4698 C402.2106,54.3218 402.7586,56.8328 403.8536,59.0028 C404.9486,61.1728 406.4786,62.8468 408.4416,64.0248 C410.4046,65.2028 412.6466,65.7918 415.1686,65.7918 C417.5246,65.7918 419.6026,65.2648 421.3996,64.2108 C423.1976,63.1568 424.5936,61.5968 425.5846,59.5298 L435.5666,59.5298 C434.1196,63.9528 431.5886,67.3938 427.9726,69.8528 C424.3536,72.3128 420.1076,73.5418 415.2306,73.5418 C411.0976,73.5418 407.3666,72.6018 404.0396,70.7208 C400.7126,68.8408 398.0876,66.2258 396.1656,62.8778 C394.2436,59.5298 393.2826,55.7278 393.2826,51.4698 C393.2826,47.2138 394.2436,43.4008 396.1656,40.0308" id="Fill-22" fill="#2A2A2A"/>
            <polygon id="Fill-24" fill="#2A2A2A" points="487.7076 29.894 487.7076 73.17 479.0276 73.17 479.0276 45.022 467.4336 73.17 460.8616 73.17 449.2056 45.022 449.2056 73.17 440.5256 73.17 440.5256 29.894 450.3836 29.894 464.1476 62.072 477.9116 29.894"/>
            <path d="M500.5728,72.0537 C498.1548,71.0207 496.2418,69.5327 494.8378,67.5897 C493.4318,65.6477 492.7088,63.3537 492.6678,60.7077 L501.9678,60.7077 C502.0918,62.4857 502.7208,63.8907 503.8578,64.9237 C504.9948,65.9577 506.5548,66.4737 508.5398,66.4737 C510.5638,66.4737 512.1558,65.9887 513.3128,65.0167 C514.4698,64.0467 515.0498,62.7757 515.0498,61.2037 C515.0498,59.9237 514.6558,58.8687 513.8718,58.0417 C513.0858,57.2157 512.1038,56.5647 510.9268,56.0887 C509.7488,55.6147 508.1258,55.0877 506.0588,54.5077 C503.2488,53.6817 500.9648,52.8647 499.2088,52.0587 C497.4508,51.2527 495.9428,50.0337 494.6818,48.4007 C493.4218,46.7687 492.7918,44.5877 492.7918,41.8597 C492.7918,39.2977 493.4318,37.0657 494.7138,35.1637 C495.9938,33.2627 497.7928,31.8057 500.1068,30.7927 C502.4218,29.7807 505.0668,29.2737 508.0438,29.2737 C512.5078,29.2737 516.1338,30.3587 518.9248,32.5287 C521.7148,34.6987 523.2538,37.7267 523.5438,41.6117 L513.9958,41.6117 C513.9118,40.1237 513.2828,38.8947 512.1038,37.9227 C510.9268,36.9517 509.3658,36.4657 507.4238,36.4657 C505.7278,36.4657 504.3748,36.8997 503.3628,37.7677 C502.3488,38.6357 501.8438,39.8977 501.8438,41.5497 C501.8438,42.7077 502.2248,43.6687 502.9908,44.4327 C503.7548,45.1987 504.7048,45.8187 505.8428,46.2927 C506.9788,46.7687 508.5798,47.3157 510.6468,47.9357 C513.4578,48.7627 515.7518,49.5897 517.5298,50.4157 C519.3058,51.2427 520.8358,52.4837 522.1178,54.1357 C523.3978,55.7897 524.0398,57.9597 524.0398,60.6457 C524.0398,62.9617 523.4398,65.1097 522.2418,67.0937 C521.0428,69.0777 519.2858,70.6587 516.9708,71.8367 C514.6558,73.0147 511.9078,73.6037 508.7248,73.6037 C505.7078,73.6037 502.9908,73.0877 500.5728,72.0537" id="Fill-26" fill="#2A2A2A"/>
            <path d="M528.2242,72.5498 C527.6242,71.9298 527.3252,71.1658 527.3252,70.2558 C527.3252,69.3468 527.6242,68.5928 528.2242,67.9928 C528.8232,67.3938 529.5772,67.0938 530.4872,67.0938 C531.3552,67.0938 532.0882,67.3938 532.6882,67.9928 C533.2862,68.5928 533.5862,69.3468 533.5862,70.2558 C533.5862,71.1658 533.2862,71.9298 532.6882,72.5498 C532.0882,73.1698 531.3552,73.4798 530.4872,73.4798 C529.5772,73.4798 528.8232,73.1698 528.2242,72.5498" id="Fill-28" fill="#2A2A2A"/>
            <path d="M538.6705,47.0371 C540.0745,44.4121 542.0185,42.3871 544.4985,40.9611 C546.9785,39.5351 549.8095,38.8221 552.9925,38.8221 C557.1665,38.8221 560.6075,39.8551 563.3155,41.9221 C566.0225,43.9891 567.7695,46.8001 568.5545,50.3541 L563.9045,50.3541 C563.3245,47.9151 562.0755,46.0041 560.1535,44.6191 C558.2315,43.2341 555.8445,42.5421 552.9925,42.5421 C550.7195,42.5421 548.6725,43.0591 546.8545,44.0921 C545.0345,45.1251 543.5995,46.6651 542.5455,48.7111 C541.4915,50.7571 540.9645,53.2681 540.9645,56.2441 C540.9645,59.2201 541.4915,61.7421 542.5455,63.8081 C543.5995,65.8751 545.0345,67.4251 546.8545,68.4581 C548.6725,69.4921 550.7195,70.0081 552.9925,70.0081 C555.8445,70.0081 558.2315,69.3161 560.1535,67.9311 C562.0755,66.5461 563.3245,64.6141 563.9045,62.1341 L568.5545,62.1341 C567.7695,65.6061 566.0125,68.3961 563.2845,70.5041 C560.5565,72.6121 557.1255,73.6661 552.9925,73.6661 C549.8095,73.6661 546.9785,72.9531 544.4985,71.5271 C542.0185,70.1011 540.0745,68.0761 538.6705,65.4511 C537.2655,62.8271 536.5625,59.7581 536.5625,56.2441 C536.5625,52.7311 537.2655,49.6621 538.6705,47.0371" id="Fill-30" fill="#2A2A2A"/>
            <path d="M595.0894,68.3647 C596.9904,67.3527 598.5304,65.8227 599.7084,63.7767 C600.8874,61.7307 601.4764,59.2197 601.4764,56.2437 C601.4764,53.2677 600.8974,50.7567 599.7394,48.7107 C598.5824,46.6647 597.0524,45.1357 595.1514,44.1227 C593.2504,43.1107 591.1844,42.6037 588.9514,42.6037 C586.7204,42.6037 584.6524,43.1107 582.7514,44.1227 C580.8504,45.1357 579.3314,46.6647 578.1944,48.7107 C577.0574,50.7567 576.4894,53.2677 576.4894,56.2437 C576.4894,59.2197 577.0574,61.7307 578.1944,63.7767 C579.3314,65.8227 580.8394,67.3527 582.7214,68.3647 C584.6014,69.3787 586.6574,69.8837 588.8904,69.8837 C591.1214,69.8837 593.1884,69.3787 595.0894,68.3647 M580.3034,71.5267 C577.7614,70.1007 575.7554,68.0757 574.2884,65.4507 C572.8204,62.8267 572.0874,59.7577 572.0874,56.2437 C572.0874,52.7317 572.8314,49.6617 574.3194,47.0367 C575.8084,44.4127 577.8324,42.3867 580.3964,40.9607 C582.9584,39.5347 585.8304,38.8217 589.0144,38.8217 C592.1954,38.8217 595.0794,39.5347 597.6624,40.9607 C600.2454,42.3867 602.2714,44.4127 603.7384,47.0367 C605.2054,49.6617 605.9404,52.7317 605.9404,56.2437 C605.9404,59.7157 605.1954,62.7757 603.7074,65.4197 C602.2204,68.0657 600.1734,70.1007 597.5694,71.5267 C594.9654,72.9527 592.0714,73.6657 588.8904,73.6657 C585.7064,73.6657 582.8454,72.9527 580.3034,71.5267" id="Fill-32" fill="#2A2A2A"/>
            <path d="M661.398,42.4487 C663.898,44.9497 665.149,48.5767 665.149,53.3297 L665.149,73.1697 L660.871,73.1697 L660.871,53.8257 C660.871,50.1477 659.982,47.3377 658.205,45.3937 C656.427,43.4517 654.009,42.4797 650.951,42.4797 C647.768,42.4797 645.226,43.5337 643.325,45.6417 C641.423,47.7497 640.473,50.8087 640.473,54.8177 L640.473,73.1697 L636.195,73.1697 L636.195,53.8257 C636.195,50.1477 635.306,47.3377 633.529,45.3937 C631.752,43.4517 629.313,42.4797 626.213,42.4797 C623.03,42.4797 620.488,43.5337 618.587,45.6417 C616.685,47.7497 615.735,50.8087 615.735,54.8177 L615.735,73.1697 L611.395,73.1697 L611.395,39.3177 L615.735,39.3177 L615.735,45.1457 C616.809,43.0377 618.339,41.4367 620.323,40.3407 C622.307,39.2457 624.518,38.6977 626.958,38.6977 C629.891,38.6977 632.464,39.4017 634.676,40.8057 C636.887,42.2117 638.489,44.2777 639.481,47.0057 C640.39,44.3197 641.951,42.2627 644.162,40.8367 C646.373,39.4107 648.883,38.6977 651.695,38.6977 C655.663,38.6977 658.897,39.9487 661.398,42.4487" id="Fill-34" fill="#2A2A2A"/>
        </g>
    </g>
</svg>